<?xml version="1.0" encoding="utf-8"?>
<!-- Generator: Adobe Illustrator 16.0.0, SVG Export Plug-In . SVG Version: 6.00 Build 0)  -->
<!DOCTYPE svg PUBLIC "-//W3C//DTD SVG 1.1//EN" "http://www.w3.org/Graphics/SVG/1.1/DTD/svg11.dtd">
<svg version="1.1" id="Layer_1" xmlns="http://www.w3.org/2000/svg" xmlns:xlink="http://www.w3.org/1999/xlink" x="0px" y="0px"
	 width="156.7px" height="42px" viewBox="0 0 156.7 42" enable-background="new 0 0 156.7 42" xml:space="preserve">
<circle fill="#FFFFFF" cx="21.45" cy="20.851" r="18"/>
<path fill="#0693CF" d="M37.95,19.051c0.1,0.6,0.1,1.2,0.1,1.8c0,9.2-7.4,16.6-16.6,16.6c-9.2,0-16.6-7.399-16.6-16.6
	c0-9.1,7.399-16.6,16.6-16.6c7.8,0,14.3,5.3,16.1,12.5c0.5,0,1,0,1.5-0.101c-1.9-7.899-9-13.8-17.6-13.8c-10-0.1-18.1,8-18.1,18
	s8.1,18.1,18.1,18.1s18.1-8.1,18.1-18.1c0-0.7,0-1.3-0.1-2C38.95,18.95,38.45,19.051,37.95,19.051z"/>
<path fill="#0693CF" d="M84.649,36.551l-1.1,2.399h-1l3.801-7.399h1l1,7.399h-0.9l-0.301-2.3h-2.5V36.551z M87.149,35.751
	L86.85,33.65c0-0.399-0.101-0.899-0.101-1.399h-0.101c-0.199,0.5-0.399,0.899-0.6,1.399l-1.1,2.101H87.149z"/>
<path fill="#0693CF" d="M94.25,33.45l-0.7,3.801c-0.1,0.6-0.199,1.1-0.199,1.6h-0.801l0.2-1l0,0c-0.5,0.7-1.101,1.1-1.8,1.1
	c-0.7,0-1.4-0.3-1.4-1.5c0-0.199,0.1-0.5,0.1-0.899l0.601-3h0.899l-0.5,3c-0.1,0.3-0.1,0.6-0.1,0.8c0,0.6,0.2,0.9,0.9,0.9
	c0.6,0,1.5-0.801,1.8-1.9l0.5-2.7h0.8v-0.2H94.25z"/>
<path fill="#0693CF" d="M97.25,32.251l-0.2,1.3h1.301l-0.101,0.7h-1.2l-0.5,2.6c0,0.3-0.1,0.6-0.1,0.9c0,0.3,0.199,0.5,0.5,0.5
	c0.1,0,0.3,0,0.4,0v0.699c-0.101,0.101-0.4,0.101-0.701,0.101c-0.799,0-1.1-0.5-1.1-1c0-0.3,0.1-0.601,0.1-1l0.5-2.7H95.45l-0.1-0.9
	h0.799l0.201-0.899L97.25,32.251z"/>
<path fill="#0693CF" d="M100.549,38.95c-1.3,0-2-1-2-2.199c0-1.7,1.2-3.301,3-3.301c1.4,0,2.1,1.101,2.1,2.2
	C103.45,37.251,102.35,38.95,100.549,38.95L100.549,38.95z M100.649,38.251c1.101,0,1.9-1.4,1.9-2.601c0-0.6-0.3-1.5-1.199-1.5
	c-1.101,0-1.9,1.4-1.9,2.601C99.35,37.65,99.95,38.251,100.649,38.251L100.649,38.251z"/>
<path fill="#0693CF" d="M108.75,31.45l-1.399,7.4h-0.9l1.4-7.4H108.75z"/>
<path fill="#0693CF" d="M109.049,38.851l0.7-3.7c0.101-0.6,0.2-1.1,0.3-1.6h0.801l-0.101,1.1l0,0c0.5-0.8,1.2-1.1,2-1.1
	c0.601,0,1.399,0.399,1.399,1.399c0,0.301,0,0.601-0.1,0.9l-0.6,3.1h-0.9l0.6-3c0.101-0.199,0.101-0.399,0.101-0.699
	c0-0.5-0.2-0.9-0.899-0.9c-0.701,0-1.5,0.8-1.801,2.1l-0.5,2.601h-1V38.851z"/>
<path fill="#0693CF" d="M114.649,37.95c0.301,0.101,0.701,0.4,1.201,0.4c0.6,0,1-0.4,1-0.9c0-0.399-0.201-0.699-0.701-1
	c-0.6-0.3-0.899-0.8-0.899-1.3c0-0.899,0.8-1.6,1.899-1.6c0.5,0,0.9,0.1,1.101,0.2l-0.3,0.699c-0.2-0.1-0.5-0.199-0.9-0.199
	c-0.6,0-0.9,0.399-0.9,0.8c0,0.399,0.301,0.6,0.801,0.899c0.6,0.4,1,0.801,1,1.4c0,1.1-0.9,1.8-2,1.8c-0.5,0-1-0.1-1.301-0.3V37.95z
	"/>
<path fill="#0693CF" d="M123.85,33.45l-0.701,3.801c-0.1,0.6-0.199,1.1-0.199,1.6h-0.801l0.101-1l0,0c-0.5,0.7-1.101,1.1-1.8,1.1
	c-0.7,0-1.4-0.3-1.4-1.5c0-0.199,0.1-0.5,0.1-0.899l0.601-3h0.899l-0.5,3c-0.1,0.3-0.1,0.6-0.1,0.8c0,0.6,0.2,0.9,0.9,0.9
	c0.699,0,1.5-0.801,1.8-1.9l0.5-2.7h0.8v-0.2H123.85z"/>
<path fill="#0693CF" d="M124.149,38.851l0.701-3.4c0.199-0.699,0.199-1.399,0.299-1.899h0.801c-0.1,0.399-0.1,0.8-0.1,1.2h0.1
	c0.4-0.7,0.9-1.2,1.6-1.2c0.1,0,0.2,0,0.2,0l-0.101,0.899c0,0-0.1,0-0.199,0c-0.801,0-1.5,0.9-1.7,2.2l-0.7,2.2H124.149
	L124.149,38.851z"/>
<path fill="#0693CF" d="M130.95,38.851c0-0.3,0.1-0.8,0.1-1.3l0,0c-0.6,1.1-1.3,1.5-2,1.5c-0.9,0-1.5-0.7-1.5-1.7
	c0-1.8,1.4-3.8,3.7-3.8c0.5,0,1,0.1,1.399,0.2l-0.699,2.6c-0.2,0.9-0.2,1.9-0.2,2.5H130.95z M131.45,34.251
	c-0.1-0.101-0.301-0.101-0.6-0.101c-1.4,0-2.5,1.4-2.5,2.9c0,0.6,0.199,1.1,0.899,1.1c0.8,0,1.7-1,1.899-2.399L131.45,34.251z"/>
<path fill="#0693CF" d="M132.95,38.851l0.699-3.7c0.101-0.6,0.201-1.1,0.301-1.6h0.8l-0.2,1l0,0c0.5-0.8,1.2-1.101,1.9-1.101
	c0.6,0,1.4,0.4,1.4,1.4c0,0.3,0,0.6-0.101,0.9l-0.601,3.1h-0.899l0.601-3c0-0.2,0-0.4,0-0.7c0-0.5-0.201-0.899-0.801-0.899
	s-1.5,0.8-1.8,2.1l-0.5,2.6h-0.8V38.851z"/>
<path fill="#0693CF" d="M142.25,38.65c-0.2,0.101-0.8,0.4-1.5,0.4c-1.399,0-2.101-0.9-2.101-2c0-1.8,1.4-3.5,3.201-3.5
	c0.5,0,1,0.1,1.1,0.2l-0.2,0.699c-0.2-0.1-0.5-0.199-0.899-0.199c-1.4,0-2.201,1.399-2.201,2.6c0,0.9,0.4,1.4,1.301,1.4
	c0.6,0,1-0.101,1.199-0.301L142.25,38.65z"/>
<path fill="#0693CF" d="M146.95,38.551c-0.4,0.2-1,0.399-1.7,0.399c-1.399,0-2-0.899-2-2.1c0-1.6,1.2-3.4,2.899-3.4
	c1,0,1.601,0.601,1.601,1.4c0,1.4-1.5,1.8-3.5,1.7c0,0.3,0,0.7,0.101,1c0.199,0.5,0.6,0.7,1.199,0.7s1.1-0.2,1.4-0.4V38.551z
	 M146.85,34.851c0-0.4-0.301-0.6-0.801-0.6c-0.9,0-1.5,0.899-1.8,1.699C145.75,35.851,146.85,35.65,146.85,34.851L146.85,34.851z"/>
<path fill="#005288" d="M33.85,19.45c0,0.2,0.199,1.2-0.4,2.2c-0.301,0.5-1,0.4-1.2,0c-0.101-0.3,0-0.399,0.101-0.5
	c0.199-0.2,0.1-0.2,0-0.3c-0.201-0.1,0-0.2,0.1-0.1c0.199,0,0.1-0.101,0-0.301c0,0-0.5-0.3-0.801,0.301c-0.1,0.199-0.6,1.1-0.1,1.8
	c0.9,1.5,2.7,1,3.5,0.1c0.7-0.8,1.301-2,1.301-3.5c-0.801-0.1-1.601-0.399-2.4-0.7C33.85,18.851,33.85,19.251,33.85,19.45z
	 M38.95,17.551c-0.9,0.1-1.801,0-2.7-0.101c-1.3-0.3-2.399-0.8-3.399-1.5c0.799,0.4,1.699,0.601,2.6,0.7
	c0.199,0,0.3,0.101,0.5,0.101c-0.7-2.301-1.7-2.9-2-3.7c-0.1-0.3-0.301-0.601-0.6-1c-0.601-0.9-1.4-1.7-2.301-2.5
	c-0.4-0.4-1.8-0.5-3.199-0.3c-1.9-1.801-4.201-2.7-5.601-1.7c0,0,0,0,0,0.1c-0.399,0.3-0.601,0.601-0.8,1c-0.1,0.2-0.2,0.5-0.2,0.7
	c-0.8,0.1-2.899-0.3-2.899-0.3s-3.801-1-6.4,3.399c0,0-1.301,2-1.4,4c0,0.4-0.1,0.9-0.199,1.5c-0.601,2.101-1.801,2.801-2.801,3l0,0
	l-0.1,0.101c0,0.1,0.1,0.1,0.1,0.1c0.4,0,0.9-0.1,1.4-0.3c0.4-0.1,0.8-0.4,1.199-0.8c0.201-0.2,0.4-0.5,0.601-0.8
	c0.101,1.199,0.101,2.8-0.5,3.8c0,0-1.601,3-1.3,5.5c1.8,4.3,6.8,7.5,12.5,7.5c5.699,0,10.8-3.3,13.3-8h-6.101
	c0-0.601-0.199-2.7-1.6-5.601c0,0-0.6-1.399-0.699-3c-1.801-0.699-3.301-2.199-4.101-4.1l0,0l0,0l0,0l0.101-0.1c0.1,0,0.1,0,0.1,0.1
	l0,0c0.8,1.2,2.1,2.8,4.4,3.5c0,0,2.899,0.8,2.1-1.8c0,0,0.3,0.5,1.8,0.3c0,0,0.101,0.2,0.3,0.2c0.1-0.2,0.301-0.2,0.301-0.2
	c0.199,0.3,0.6,0.5,0.799,0l0.101-0.1c0.7,0.3,1.399,0.5,2.101,0.699c1.6,0.301,3.1,0.301,4.6,0l0,0c0,0,0,0,0.1,0h0.1l0,0
	c0.101,0,0.301-0.1,0.301-0.1C39.149,17.65,39.049,17.551,38.95,17.551z M11.049,27.95c0-3,0.9-4.1,1.1-4.6
	c0-0.2,0.201-0.4,0.301-0.5c0.1,0.3,0.3,0.7,0.3,1.2c0.101,1.2-0.2,2.399,0.3,3.899H11.049z M20.75,21.351c0,0.8,0,1.5-0.2,2.2l0,0
	c-0.199,1.399-0.9,3.1-0.4,4.399h-4.1c-0.199-0.399-0.699-1.1-1-2.399c-0.199-1.5-0.199-2.101,0.2-3.101s1.3-1.399,1.5-1.399
	c0.3,0,1.399,0.1,2.2-0.2c0.8-0.3,1.199-0.6,1.6-0.4C20.85,20.351,20.85,21.15,20.75,21.351z M23.95,22.45c0,0,1.6,2.101,1.6,5.5
	h-2.6C22.75,27.45,22.35,25.65,23.95,22.45z M31.75,13.551c-0.3,0.1-0.7-0.2-0.7-0.601c0-0.3,0.2-0.6,0.6-0.699
	c0.4,0,0.701,0.199,0.701,0.6S32.149,13.551,31.75,13.551z"/>
<path fill="#005288" d="M145.95,13.65l0.8-3.899h-4l-0.8,3.899l-1.6,0.101l-0.701,3.199l1.601,0.101l-1.399,6.6
	c-0.101,0.5-0.201,1-0.201,1.5c0,1.3,0.4,2.2,1.201,2.7c0.799,0.5,1.799,0.7,2.899,0.7c1.399,0,2.8-0.2,4.101-0.8l0.199-0.101
	l-1-3.3l-0.199,0.1c-0.701,0.301-1.601,0.5-2.301,0.5c-0.5,0-0.9-0.1-0.9-0.6c0-0.1,0-0.1,0-0.2l1.601-7h4.101l0.1-0.2l0.8-3.3
	H145.95L145.95,13.65z M61.75,24.95c-0.2,0.101-0.5,0.2-0.8,0.2c-0.4-0.1-0.6-0.2-0.6-0.5c0-0.1,0-0.2,0-0.3h-0.201h0.301
	l3.699-17.1H60.25l-3.601,17c-0.1,0.5-0.1,0.899-0.1,1.5c0,1,0.301,1.699,0.801,2.199s1.299,0.7,2.299,0.7c1.101,0,2.101-0.2,3-0.5
	l0.201-0.1l-0.801-3.2L61.75,24.95z M74.45,24.351c-1.1,0.5-2.301,0.7-3.4,0.7c-1.9,0-3-0.8-3.1-2.7h9.199l0.101-0.1
	c0.399-0.9,0.7-1.9,0.7-2.9c0-1.7-0.6-3.2-1.6-4.3c-1-1-2.5-1.601-4.301-1.601c-4.699,0-7.9,4-7.9,8.5c0,2.101,0.701,3.801,2,4.9
	c1.301,1.1,3,1.8,5,1.8c1.701,0,3.301-0.399,4.801-1.1l0.199-0.101l-1-3L74.45,24.351z M71.649,16.65c1.301,0,2.201,1.101,2.201,2.4
	c0,0.1,0,0.2,0,0.3h-5.5C68.85,17.851,70.049,16.65,71.649,16.65z M90.85,15.15c-1.301-1.1-3.101-1.7-5.101-1.7
	c-1.7,0-3.399,0.4-5,1l-0.101,0.101v0.2c0,0.6-0.1,1.3-0.199,2l-3.801,18h4l1.4-6.5c0.9,0.3,1.9,0.5,2.801,0.5
	c4.699,0,8.399-3.7,8.399-8.4C92.95,18.051,92.25,16.351,90.85,15.15z M84.35,25.051c-0.601,0-1.201-0.101-1.801-0.3l1.5-7
	c0-0.2,0.1-0.5,0.1-0.7c0.5-0.101,0.9-0.2,1.5-0.2c2.101,0,3.201,1.3,3.301,3.4C88.85,22.751,86.95,25.051,84.35,25.051z
	 M107.049,14.351c-0.8-0.7-2-1-3.3-1c-1.101,0-2.399,0.3-3.399,0.7l1.5-6.9h-3.9l-4.5,21.101h3.9l2.199-10.601
	c0.9-0.5,2.1-0.8,3.1-0.8c1.201,0.1,1.601,0.5,1.601,1.7c0,0.2,0,0.5-0.101,0.8l-1.899,9h3.899l2-9.2l-0.199-0.3l0.3,0.1
	c0.101-0.5,0.101-0.899,0.101-1.399C108.35,16.15,107.85,15.051,107.049,14.351z M121.25,14.251c-1-0.601-2.399-0.9-3.601-0.9
	c-1.899,0-3.899,0.5-5.699,1.2l-0.2,0.1l1.101,3.101l0.299-0.101c1.301-0.5,2.801-0.8,4.101-0.8c0.399,0,0.899,0.1,1.2,0.2
	c0.4,0.2,0.6,0.399,0.6,0.7c0,0.5-0.4,0.8-1.4,1.1c-1.399,0.4-3.5,0.6-5.299,1.3c-1.801,0.7-3.4,2-3.4,4.4c0,1.6,0.8,2.7,2,3.3
	c1.199,0.6,2.699,0.8,4.3,0.9c2.2,0,4.5-0.4,5.899-0.801h0.201v-0.199c0,0,0.1-1.4,0.1-1.9l1.5-6.7c0.1-0.399,0.1-0.8,0.1-1.3
	C122.95,15.95,122.25,14.851,121.25,14.251z M117.649,24.251c-0.1,0.3-0.1,0.6-0.1,0.8c-0.699,0.2-1.5,0.3-2.3,0.3
	c-0.399,0-1-0.1-1.5-0.3s-0.7-0.4-0.7-0.9c0-0.8,0.9-1.3,2.2-1.6c1-0.2,2.101-0.4,3-0.7L117.649,24.251z M136.45,14.351
	c-0.9-0.7-2.2-0.9-3.6-0.9c-2.301,0-4.9,0.7-7,1.4l-0.101,0.1v0.2c0,0-0.101,1.5-0.101,1.9L123.25,28.45h4l2.101-10.5
	c0-0.199,0-0.5,0-0.699c0.899-0.2,1.799-0.4,2.699-0.4c1.301,0.1,2,0.4,2,1.6c0,0.4,0,0.801-0.1,1.101l-1.801,8.7h4l1.801-8.4
	c0.199-0.7,0.3-1.3,0.3-2.1C138.049,16.15,137.45,15.051,136.45,14.351z M53.75,19.751l0.8-3.5h-6.4l0.9-4.101h7.7l0.101-0.2
	l0.799-3.3H45.95l-4.2,19.601H53.35l0.799-3.5H46.25l1.101-4.9h6.399V19.751z"/>
<path fill="#FFFFFF" d="M151.45,24.45c0.3,0,0.6,0.101,0.9,0.2c0.299,0.2,0.6,0.4,0.699,0.7c0.2,0.3,0.301,0.6,0.301,1
	c0,0.3-0.101,0.6-0.201,0.9c-0.1,0.3-0.399,0.6-0.699,0.699c-0.301,0.101-0.6,0.301-0.9,0.301c-0.3,0-0.6-0.101-1-0.2
	c-0.3-0.101-0.5-0.4-0.699-0.7c-0.201-0.4-0.301-0.7-0.301-1s0.1-0.6,0.301-0.9c0.1-0.3,0.399-0.5,0.699-0.699
	C150.95,24.551,151.25,24.45,151.45,24.45z M151.45,24.751c-0.2,0-0.5,0.1-0.7,0.199c-0.2,0.101-0.399,0.4-0.601,0.601
	c-0.1,0.3-0.199,0.5-0.199,0.8s0.1,0.5,0.199,0.7c0.201,0.3,0.4,0.5,0.601,0.6c0.3,0.101,0.5,0.2,0.8,0.2c0.301,0,0.6,0,0.801-0.2
	c0.199-0.1,0.399-0.399,0.6-0.6c0.199-0.2,0.199-0.5,0.199-0.7s0-0.5-0.199-0.8c-0.2-0.3-0.4-0.5-0.6-0.601
	C152.049,24.851,151.75,24.751,151.45,24.751z M150.75,27.351v-2h0.7c0.3,0,0.4,0,0.5,0.1c0.1,0.101,0.199,0.101,0.3,0.2
	c0.101,0.101,0.101,0.2,0.101,0.3c0,0.2-0.101,0.301-0.201,0.4c-0.1,0.1-0.199,0.2-0.399,0.2c0,0.1,0.101,0.1,0.101,0.1
	c0.1,0.101,0.199,0.2,0.299,0.4l0.201,0.3h-0.4l-0.2-0.3c-0.101-0.2-0.2-0.4-0.3-0.4c-0.1-0.1-0.2-0.1-0.301-0.1h-0.199v0.8H150.75z
	 M150.95,26.251h0.4c0.199,0,0.299-0.101,0.399-0.101c0-0.1,0.101-0.1,0.101-0.2v-0.1c0-0.1-0.101-0.1-0.101-0.1
	c-0.101,0-0.101,0-0.3,0h-0.301v0.5H150.95z"/>
</svg>
